<mxfile host="www.draw.io" modified="2019-12-23T07:23:45.410Z" agent="Mozilla/5.0 (X11; Ubuntu; Linux x86_64; rv:71.0) Gecko/20100101 Firefox/71.0" etag="kb2X8SsoO1GjnAYD3nFU" version="12.4.3" type="github" pages="3">
  <diagram id="3XRRQwsw3EzWLE2KCFA8" name="Page-1">
    <mxGraphModel dx="698" dy="473" grid="1" gridSize="10" guides="1" tooltips="1" connect="1" arrows="1" fold="1" page="1" pageScale="1" pageWidth="1100" pageHeight="850" math="0" shadow="0">
      <root>
        <mxCell id="0"/>
        <mxCell id="1" parent="0"/>
        <mxCell id="ZazjjINXxzxjRcfW3_KV-16" value="stationx.net" style="strokeWidth=2;dashed=0;align=center;fontSize=14;shape=rect;fillColor=#fffbc0;strokeColor=#000000;fontColor=#000000;" parent="1" vertex="1">
          <mxGeometry x="70" y="130" width="150" height="80" as="geometry"/>
        </mxCell>
        <mxCell id="ZazjjINXxzxjRcfW3_KV-17" value="Virus Total" style="strokeWidth=2;dashed=0;align=center;fontSize=13;shape=rect;fillColor=#fffbc0;strokeColor=#000000;fontColor=#330000;" parent="1" vertex="1">
          <mxGeometry x="560" y="320" width="100" height="40" as="geometry"/>
        </mxCell>
        <mxCell id="ZazjjINXxzxjRcfW3_KV-18" value="" style="strokeWidth=2;dashed=0;align=center;fontSize=8;shape=rect;fillColor=#fffbc0;strokeColor=#000000;" parent="1" vertex="1">
          <mxGeometry x="70" y="331" width="26" height="18" as="geometry"/>
        </mxCell>
        <mxCell id="ZazjjINXxzxjRcfW3_KV-19" value="Abuse DB" style="strokeWidth=2;dashed=0;align=center;fontSize=14;shape=rect;fillColor=#fffbc0;strokeColor=#000000;fontColor=#000000;" parent="1" vertex="1">
          <mxGeometry x="535" y="230" width="76" height="50" as="geometry"/>
        </mxCell>
        <mxCell id="ZazjjINXxzxjRcfW3_KV-20" value="X-Force" style="strokeWidth=2;dashed=0;align=center;fontSize=18;shape=rect;fillColor=#fffbc0;strokeColor=#000000;fontColor=#33001A;labelBackgroundColor=none;labelBorderColor=#000000;" parent="1" vertex="1">
          <mxGeometry x="394.5" y="188" width="107" height="42" as="geometry"/>
        </mxCell>
        <mxCell id="ZazjjINXxzxjRcfW3_KV-68" value="" style="edgeStyle=orthogonalEdgeStyle;rounded=0;orthogonalLoop=1;jettySize=auto;html=1;fontSize=13;fontColor=#330000;entryX=0.5;entryY=1;entryDx=0;entryDy=0;" parent="1" source="ZazjjINXxzxjRcfW3_KV-41" target="ZazjjINXxzxjRcfW3_KV-21" edge="1">
          <mxGeometry relative="1" as="geometry">
            <mxPoint x="519.5" y="491" as="sourcePoint"/>
            <Array as="points">
              <mxPoint x="500" y="470"/>
              <mxPoint x="363" y="470"/>
            </Array>
          </mxGeometry>
        </mxCell>
        <mxCell id="ZazjjINXxzxjRcfW3_KV-21" value="" style="strokeWidth=2;dashed=0;align=center;fontSize=8;shape=rect;fillColor=#c0f5a9;strokeColor=#000000;" parent="1" vertex="1">
          <mxGeometry x="266" y="290" width="194" height="140" as="geometry"/>
        </mxCell>
        <mxCell id="ZazjjINXxzxjRcfW3_KV-23" value="" style="edgeStyle=none;endArrow=none;dashed=0;html=1;strokeWidth=2;" parent="1" source="ZazjjINXxzxjRcfW3_KV-21" target="ZazjjINXxzxjRcfW3_KV-16" edge="1">
          <mxGeometry relative="1" as="geometry"/>
        </mxCell>
        <mxCell id="ZazjjINXxzxjRcfW3_KV-24" value="" style="edgeStyle=none;endArrow=none;dashed=0;html=1;strokeWidth=2;" parent="1" source="ZazjjINXxzxjRcfW3_KV-21" target="ZazjjINXxzxjRcfW3_KV-17" edge="1">
          <mxGeometry relative="1" as="geometry"/>
        </mxCell>
        <mxCell id="ZazjjINXxzxjRcfW3_KV-25" value="" style="edgeStyle=none;endArrow=none;dashed=0;html=1;strokeWidth=2;" parent="1" source="ZazjjINXxzxjRcfW3_KV-21" target="ZazjjINXxzxjRcfW3_KV-18" edge="1">
          <mxGeometry relative="1" as="geometry"/>
        </mxCell>
        <mxCell id="ZazjjINXxzxjRcfW3_KV-26" value="" style="edgeStyle=none;endArrow=none;dashed=0;html=1;strokeWidth=2;" parent="1" source="ZazjjINXxzxjRcfW3_KV-21" target="ZazjjINXxzxjRcfW3_KV-19" edge="1">
          <mxGeometry relative="1" as="geometry"/>
        </mxCell>
        <mxCell id="ZazjjINXxzxjRcfW3_KV-27" value="" style="edgeStyle=none;endArrow=none;dashed=0;html=1;strokeWidth=2;" parent="1" source="ZazjjINXxzxjRcfW3_KV-21" target="ZazjjINXxzxjRcfW3_KV-20" edge="1">
          <mxGeometry relative="1" as="geometry"/>
        </mxCell>
        <mxCell id="ZazjjINXxzxjRcfW3_KV-33" value="&lt;font color=&quot;#FF6666&quot;&gt;LOGS&lt;/font&gt;" style="strokeWidth=2;html=1;shape=mxgraph.flowchart.direct_data;whiteSpace=wrap;fontSize=14;fontColor=#000000;" parent="1" vertex="1">
          <mxGeometry x="33" y="480" width="100" height="60" as="geometry"/>
        </mxCell>
        <mxCell id="ZazjjINXxzxjRcfW3_KV-36" value="&lt;div&gt;&lt;font color=&quot;#33FF33&quot;&gt;N&lt;/font&gt;&lt;/div&gt;&lt;div&gt;&lt;font color=&quot;#33FF33&quot;&gt;&lt;br&gt;&lt;/font&gt;&lt;/div&gt;&lt;font color=&quot;#FF3333&quot;&gt;Y&lt;/font&gt;" style="shape=sortShape;perimeter=rhombusPerimeter;whiteSpace=wrap;html=1;fontSize=14;fontColor=#000000;" parent="1" vertex="1">
          <mxGeometry x="62.5" y="640" width="77.5" height="60" as="geometry"/>
        </mxCell>
        <mxCell id="ZazjjINXxzxjRcfW3_KV-38" value="Process Bar" style="swimlane;childLayout=stackLayout;horizontal=1;fillColor=none;horizontalStack=1;resizeParent=1;resizeParentMax=0;resizeLast=0;collapsible=0;strokeColor=none;stackBorder=10;stackSpacing=-12;resizable=1;align=center;points=[];fontColor=#000000;" parent="1" vertex="1">
          <mxGeometry x="300" y="520" width="296" height="100" as="geometry"/>
        </mxCell>
        <mxCell id="ZazjjINXxzxjRcfW3_KV-39" value="IP" style="shape=step;perimeter=stepPerimeter;fixedSize=1;points=[];" parent="ZazjjINXxzxjRcfW3_KV-38" vertex="1">
          <mxGeometry x="10" y="33" width="100" height="57" as="geometry"/>
        </mxCell>
        <mxCell id="ZazjjINXxzxjRcfW3_KV-40" value="Domain" style="shape=step;perimeter=stepPerimeter;fixedSize=1;points=[];" parent="ZazjjINXxzxjRcfW3_KV-38" vertex="1">
          <mxGeometry x="98" y="33" width="100" height="57" as="geometry"/>
        </mxCell>
        <mxCell id="ZazjjINXxzxjRcfW3_KV-41" value="&quot;Deep&quot;&#xa;Packet" style="shape=step;perimeter=stepPerimeter;fixedSize=1;points=[];" parent="ZazjjINXxzxjRcfW3_KV-38" vertex="1">
          <mxGeometry x="186" y="33" width="100" height="57" as="geometry"/>
        </mxCell>
        <mxCell id="ZazjjINXxzxjRcfW3_KV-44" value="&lt;font color=&quot;#FFFF66&quot;&gt;Dynamic?&lt;/font&gt;" style="whiteSpace=wrap;html=1;shape=partialRectangle;top=0;left=0;bottom=1;right=0;points=[[0,1],[1,1]];strokeColor=#000000;fillColor=none;align=center;verticalAlign=bottom;routingCenterY=0.5;snapToPoint=1;container=1;recursiveResize=0;autosize=1;treeFolding=1;treeMoving=1;fontSize=14;fontColor=#000000;" parent="1" vertex="1">
          <mxGeometry x="43.75" y="595" width="96.25" height="25" as="geometry"/>
        </mxCell>
        <mxCell id="ZazjjINXxzxjRcfW3_KV-45" value="" style="edgeStyle=entityRelationEdgeStyle;startArrow=none;endArrow=none;segment=10;curved=1;fontSize=14;fontColor=#000000;exitX=0.313;exitY=0.175;exitDx=0;exitDy=0;exitPerimeter=0;entryX=0.335;entryY=1.067;entryDx=0;entryDy=0;entryPerimeter=0;" parent="1" source="ZazjjINXxzxjRcfW3_KV-36" target="ZazjjINXxzxjRcfW3_KV-44" edge="1">
          <mxGeometry relative="1" as="geometry">
            <mxPoint x="70" y="590" as="sourcePoint"/>
          </mxGeometry>
        </mxCell>
        <mxCell id="ZazjjINXxzxjRcfW3_KV-52" value="&lt;font color=&quot;#FF3333&quot;&gt;Y&lt;br&gt;&lt;/font&gt;&lt;br&gt;&lt;font color=&quot;#33FF33&quot;&gt;N&lt;/font&gt;" style="shape=sortShape;perimeter=rhombusPerimeter;whiteSpace=wrap;html=1;fontSize=14;fontColor=#000000;" parent="1" vertex="1">
          <mxGeometry x="266" y="720" width="80" height="80" as="geometry"/>
        </mxCell>
        <mxCell id="ZazjjINXxzxjRcfW3_KV-53" value="&lt;font color=&quot;#99CCFF&quot;&gt;Malicious?&lt;/font&gt;" style="whiteSpace=wrap;html=1;shape=partialRectangle;top=0;left=0;bottom=1;right=0;points=[[0,1],[1,1]];strokeColor=#000000;fillColor=none;align=center;verticalAlign=bottom;routingCenterY=0.5;snapToPoint=1;container=1;recursiveResize=0;autosize=1;treeFolding=1;treeMoving=1;fontSize=14;fontColor=#000000;" parent="1" vertex="1">
          <mxGeometry x="256" y="680" width="100" height="20" as="geometry"/>
        </mxCell>
        <mxCell id="ZazjjINXxzxjRcfW3_KV-54" value="" style="edgeStyle=entityRelationEdgeStyle;startArrow=none;endArrow=none;segment=10;curved=1;fontSize=14;fontColor=#000000;exitX=0.313;exitY=0.175;exitDx=0;exitDy=0;exitPerimeter=0;entryX=0.335;entryY=1.067;entryDx=0;entryDy=0;entryPerimeter=0;" parent="1" source="ZazjjINXxzxjRcfW3_KV-52" target="ZazjjINXxzxjRcfW3_KV-53" edge="1">
          <mxGeometry relative="1" as="geometry">
            <mxPoint x="180" y="610" as="sourcePoint"/>
          </mxGeometry>
        </mxCell>
        <mxCell id="ZazjjINXxzxjRcfW3_KV-55" value="" style="edgeStyle=elbowEdgeStyle;elbow=vertical;endArrow=classic;html=1;fontSize=14;fontColor=#000000;exitX=0.175;exitY=0.338;exitDx=0;exitDy=0;exitPerimeter=0;" parent="1" source="ZazjjINXxzxjRcfW3_KV-52" edge="1">
          <mxGeometry width="50" height="50" relative="1" as="geometry">
            <mxPoint x="90" y="720" as="sourcePoint"/>
            <mxPoint x="160" y="790" as="targetPoint"/>
            <Array as="points">
              <mxPoint x="220" y="740"/>
              <mxPoint x="230" y="770"/>
              <mxPoint x="180" y="727"/>
            </Array>
          </mxGeometry>
        </mxCell>
        <mxCell id="ZazjjINXxzxjRcfW3_KV-56" value="" style="edgeStyle=elbowEdgeStyle;elbow=horizontal;endArrow=classic;html=1;fontSize=14;fontColor=#000000;exitX=0.606;exitY=0.888;exitDx=0;exitDy=0;exitPerimeter=0;entryX=-0.05;entryY=0.7;entryDx=0;entryDy=0;entryPerimeter=0;" parent="1" source="ZazjjINXxzxjRcfW3_KV-36" target="ZazjjINXxzxjRcfW3_KV-53" edge="1">
          <mxGeometry width="50" height="50" relative="1" as="geometry">
            <mxPoint x="30" y="870" as="sourcePoint"/>
            <mxPoint x="126" y="790" as="targetPoint"/>
          </mxGeometry>
        </mxCell>
        <mxCell id="ZazjjINXxzxjRcfW3_KV-57" value="EHLO?" style="whiteSpace=wrap;html=1;rounded=1;arcSize=50;align=center;verticalAlign=middle;container=1;recursiveResize=0;strokeWidth=1;autosize=1;spacing=4;treeFolding=1;treeMoving=1;fontSize=14;fontColor=#FFFF66;" parent="1" vertex="1">
          <mxGeometry x="440" y="655" width="90" height="30" as="geometry"/>
        </mxCell>
        <mxCell id="ZazjjINXxzxjRcfW3_KV-58" value="" style="edgeStyle=entityRelationEdgeStyle;startArrow=none;endArrow=none;segment=10;curved=1;fontSize=14;fontColor=#000000;exitX=0.11;exitY=0.982;exitDx=0;exitDy=0;exitPerimeter=0;" parent="1" source="ZazjjINXxzxjRcfW3_KV-41" target="ZazjjINXxzxjRcfW3_KV-57" edge="1">
          <mxGeometry relative="1" as="geometry">
            <mxPoint x="460" y="740" as="sourcePoint"/>
          </mxGeometry>
        </mxCell>
        <mxCell id="ZazjjINXxzxjRcfW3_KV-59" value="TLS?" style="whiteSpace=wrap;html=1;rounded=1;arcSize=50;align=center;verticalAlign=middle;container=1;recursiveResize=0;strokeWidth=1;autosize=1;spacing=4;treeFolding=1;treeMoving=1;fontSize=14;fontColor=#FFFF66;" parent="1" vertex="1">
          <mxGeometry x="440" y="700" width="70" height="30" as="geometry"/>
        </mxCell>
        <mxCell id="ZazjjINXxzxjRcfW3_KV-60" value="" style="edgeStyle=entityRelationEdgeStyle;startArrow=none;endArrow=none;segment=10;curved=1;fontSize=14;fontColor=#000000;exitX=0.11;exitY=0.982;exitDx=0;exitDy=0;exitPerimeter=0;" parent="1" target="ZazjjINXxzxjRcfW3_KV-59" edge="1">
          <mxGeometry relative="1" as="geometry">
            <mxPoint x="532" y="680" as="sourcePoint"/>
          </mxGeometry>
        </mxCell>
        <mxCell id="ZazjjINXxzxjRcfW3_KV-61" value="&lt;div&gt;&lt;font color=&quot;#33FF33&quot;&gt;N&lt;/font&gt;&lt;/div&gt;&lt;div&gt;&lt;font color=&quot;#33FF33&quot;&gt;&lt;br&gt;&lt;/font&gt;&lt;/div&gt;&lt;font color=&quot;#FF3333&quot;&gt;Y&lt;/font&gt;" style="shape=sortShape;perimeter=rhombusPerimeter;whiteSpace=wrap;html=1;fontSize=14;fontColor=#000000;" parent="1" vertex="1">
          <mxGeometry x="177.5" y="595" width="72.5" height="65" as="geometry"/>
        </mxCell>
        <mxCell id="ZazjjINXxzxjRcfW3_KV-62" value="&lt;font color=&quot;#FFFF66&quot;&gt;Hosting?&lt;/font&gt;" style="whiteSpace=wrap;html=1;shape=partialRectangle;top=0;left=0;bottom=1;right=0;points=[[0,1],[1,1]];strokeColor=#000000;fillColor=none;align=center;verticalAlign=bottom;routingCenterY=0.5;snapToPoint=1;container=1;recursiveResize=0;autosize=1;treeFolding=1;treeMoving=1;fontSize=14;fontColor=#000000;" parent="1" vertex="1">
          <mxGeometry x="190.5" y="565" width="90" height="20" as="geometry"/>
        </mxCell>
        <mxCell id="ZazjjINXxzxjRcfW3_KV-77" value="" style="edgeStyle=orthogonalEdgeStyle;rounded=0;orthogonalLoop=1;jettySize=auto;html=1;fontSize=13;fontColor=#330000;exitX=0.883;exitY=0.308;exitDx=0;exitDy=0;exitPerimeter=0;" parent="1" source="ZazjjINXxzxjRcfW3_KV-64" target="ZazjjINXxzxjRcfW3_KV-76" edge="1">
          <mxGeometry relative="1" as="geometry"/>
        </mxCell>
        <mxCell id="ZazjjINXxzxjRcfW3_KV-64" value="&lt;font color=&quot;#66FF66&quot;&gt;Y&lt;/font&gt;&lt;div&gt;&lt;font color=&quot;#33FF33&quot;&gt;&lt;br&gt;&lt;/font&gt;&lt;/div&gt;&lt;font color=&quot;#FF3333&quot;&gt;N&lt;/font&gt;" style="shape=sortShape;perimeter=rhombusPerimeter;whiteSpace=wrap;html=1;fontSize=14;fontColor=#000000;" parent="1" vertex="1">
          <mxGeometry x="640" y="585" width="72.5" height="65" as="geometry"/>
        </mxCell>
        <mxCell id="ZazjjINXxzxjRcfW3_KV-82" value="" style="edgeStyle=orthogonalEdgeStyle;rounded=0;orthogonalLoop=1;jettySize=auto;html=1;fontSize=13;fontColor=#330000;" parent="1" source="ZazjjINXxzxjRcfW3_KV-76" target="ZazjjINXxzxjRcfW3_KV-81" edge="1">
          <mxGeometry relative="1" as="geometry"/>
        </mxCell>
        <mxCell id="ZazjjINXxzxjRcfW3_KV-76" value="&lt;div&gt;&lt;font color=&quot;#33FF33&quot;&gt;N&lt;/font&gt;&lt;/div&gt;&lt;div&gt;&lt;font color=&quot;#33FF33&quot;&gt;&lt;br&gt;&lt;/font&gt;&lt;/div&gt;&lt;font color=&quot;#FF3333&quot;&gt;Y&lt;/font&gt;" style="shape=sortShape;perimeter=rhombusPerimeter;whiteSpace=wrap;html=1;fontSize=14;fontColor=#000000;" parent="1" vertex="1">
          <mxGeometry x="742.5" y="665" width="72.5" height="65" as="geometry"/>
        </mxCell>
        <mxCell id="ZazjjINXxzxjRcfW3_KV-81" value="&lt;div&gt;&lt;font color=&quot;#33FF33&quot;&gt;N&lt;/font&gt;&lt;/div&gt;&lt;div&gt;&lt;font color=&quot;#33FF33&quot;&gt;&lt;br&gt;&lt;/font&gt;&lt;/div&gt;&lt;font color=&quot;#FF3333&quot;&gt;Y&lt;/font&gt;" style="shape=sortShape;perimeter=rhombusPerimeter;whiteSpace=wrap;html=1;fontSize=14;fontColor=#000000;" parent="1" vertex="1">
          <mxGeometry x="826" y="665" width="72.5" height="65" as="geometry"/>
        </mxCell>
        <mxCell id="ZazjjINXxzxjRcfW3_KV-65" value="&lt;font style=&quot;font-size: 9px&quot; color=&quot;#FFFF66&quot;&gt;Prior Valid Login?&lt;/font&gt;" style="whiteSpace=wrap;html=1;shape=partialRectangle;top=0;left=0;bottom=1;right=0;points=[[0,1],[1,1]];strokeColor=#000000;fillColor=none;align=center;verticalAlign=bottom;routingCenterY=0.5;snapToPoint=1;container=1;recursiveResize=0;autosize=1;treeFolding=1;treeMoving=1;fontSize=14;fontColor=#000000;" parent="1" vertex="1">
          <mxGeometry x="620.25" y="565" width="112" height="25" as="geometry"/>
        </mxCell>
        <mxCell id="ZazjjINXxzxjRcfW3_KV-78" value="&lt;font style=&quot;font-size: 9px&quot; color=&quot;#FFFF66&quot;&gt;Mobile IP?&lt;/font&gt;" style="whiteSpace=wrap;html=1;shape=partialRectangle;top=0;left=0;bottom=1;right=0;points=[[0,1],[1,1]];strokeColor=#000000;fillColor=none;align=center;verticalAlign=bottom;routingCenterY=0.5;snapToPoint=1;container=1;recursiveResize=0;autosize=1;treeFolding=1;treeMoving=1;fontSize=14;fontColor=#000000;" parent="1" vertex="1">
          <mxGeometry x="746" y="645" width="80" height="20" as="geometry"/>
        </mxCell>
        <mxCell id="ZazjjINXxzxjRcfW3_KV-83" value="&lt;font style=&quot;font-size: 9px&quot; color=&quot;#FFFF66&quot;&gt;&amp;nbsp;SOHO IP?&lt;/font&gt;" style="whiteSpace=wrap;html=1;shape=partialRectangle;top=0;left=0;bottom=1;right=0;points=[[0,1],[1,1]];strokeColor=#000000;fillColor=none;align=center;verticalAlign=bottom;routingCenterY=0.5;snapToPoint=1;container=1;recursiveResize=0;autosize=1;treeFolding=1;treeMoving=1;fontSize=14;fontColor=#000000;" parent="1" vertex="1">
          <mxGeometry x="837" y="645" width="80" height="20" as="geometry"/>
        </mxCell>
        <mxCell id="ZazjjINXxzxjRcfW3_KV-70" value="&lt;b&gt;&lt;span style=&quot;background-color: rgb(0 , 0 , 0)&quot;&gt;&lt;font style=&quot;font-size: 10px&quot; color=&quot;#FFCCE6&quot;&gt;Multiple PWDs?&lt;/font&gt;&lt;/span&gt;&lt;/b&gt;" style="whiteSpace=wrap;html=1;rounded=1;arcSize=50;align=center;verticalAlign=middle;container=1;recursiveResize=0;strokeWidth=1;autosize=1;spacing=4;treeFolding=1;treeMoving=1;fontSize=14;fontColor=#FFFF66;" parent="1" vertex="1">
          <mxGeometry x="435" y="741.25" width="125" height="37.5" as="geometry"/>
        </mxCell>
        <mxCell id="ZazjjINXxzxjRcfW3_KV-71" value="" style="edgeStyle=entityRelationEdgeStyle;startArrow=none;endArrow=none;segment=10;curved=1;fontSize=14;fontColor=#000000;" parent="1" source="ZazjjINXxzxjRcfW3_KV-59" target="ZazjjINXxzxjRcfW3_KV-70" edge="1">
          <mxGeometry relative="1" as="geometry">
            <mxPoint x="540" y="793" as="sourcePoint"/>
          </mxGeometry>
        </mxCell>
        <mxCell id="ZazjjINXxzxjRcfW3_KV-80" value="&lt;div&gt;&lt;font color=&quot;#EA6B66&quot;&gt;&lt;span style=&quot;background-color: rgb(0 , 0 , 0)&quot;&gt;d&lt;/span&gt;&lt;/font&gt;&lt;/div&gt;&lt;div&gt;&lt;font color=&quot;#EA6B66&quot;&gt;&lt;span style=&quot;background-color: rgb(0 , 0 , 0)&quot;&gt;r&lt;/span&gt;&lt;/font&gt;&lt;/div&gt;&lt;div&gt;&lt;font color=&quot;#EA6B66&quot;&gt;&lt;span style=&quot;background-color: rgb(0 , 0 , 0)&quot;&gt;o&lt;/span&gt;&lt;/font&gt;&lt;/div&gt;&lt;div&gt;&lt;font color=&quot;#EA6B66&quot;&gt;&lt;span style=&quot;background-color: rgb(0 , 0 , 0)&quot;&gt;p&lt;br&gt;&lt;/span&gt;&lt;/font&gt;&lt;/div&gt;" style="shape=singleArrow;direction=south;whiteSpace=wrap;html=1;labelBackgroundColor=none;fontSize=13;fontColor=#330000;arrowWidth=0.36666666666666664;arrowSize=0.24;" parent="1" vertex="1">
          <mxGeometry x="646.25" y="650" width="60" height="100" as="geometry"/>
        </mxCell>
      </root>
    </mxGraphModel>
  </diagram>
  <diagram id="K1pB36KzKjIgZyqpKXAG" name="Page-2">
    <mxGraphModel dx="698" dy="473" grid="1" gridSize="10" guides="1" tooltips="1" connect="1" arrows="1" fold="1" page="1" pageScale="1" pageWidth="850" pageHeight="1100" math="0" shadow="0">
      <root>
        <mxCell id="Tu1OcHofki_U5It5Fhx5-0"/>
        <mxCell id="Tu1OcHofki_U5It5Fhx5-1" parent="Tu1OcHofki_U5It5Fhx5-0"/>
        <mxCell id="fsAmxyAkjJOuz5wNoJq1-0" value="&lt;br&gt;&lt;div&gt;&lt;font style=&quot;font-size: 10px&quot;&gt;&amp;nbsp; https://www.mywot.com/en/scorecard/&lt;br&gt;&amp;nbsp; https://transparencyreport.google.com/safe-browsing/search?url=&lt;br&gt;&amp;nbsp; https://transparencyreport.google.com/safe-browsing/search?url=&lt;br&gt;&amp;nbsp; https://www.virustotal.com/en/url/submission/?url=&lt;br&gt;&amp;nbsp;&lt;br&gt;&amp;nbsp; McAfee&lt;br&gt;&amp;nbsp; https://www.siteadvisor.com/sites/&lt;br&gt;&amp;nbsp; &lt;br&gt;&amp;nbsp; https://www.talosintelligence.com/reputation_center/lookup?search=&lt;br&gt;&amp;nbsp; http://www.wmtips.com/tools/info/?url=&lt;br&gt;&amp;nbsp; http://hosts-file.net/default.asp?s=&lt;br&gt;&amp;nbsp; http://www.urlvoid.com/scan/&lt;br&gt;&amp;nbsp; https://exchange.xforce.ibmcloud.com/ip/&lt;br&gt;&amp;nbsp; https://exchange.xforce.ibmcloud.com/url/&lt;br&gt;&amp;nbsp; https://community.riskiq.com/search/&lt;br&gt;&amp;nbsp; https://zeltser.com/lookup-malicious-websites/&lt;br&gt;&amp;nbsp; https://www.abuseipdb.com/check&lt;br&gt;&amp;nbsp; https://fortiguard.com/webfilter?q=&lt;br&gt;&amp;nbsp; https://hashdd.com/i/&lt;br&gt;&amp;nbsp; &lt;br&gt;&amp;nbsp; http://www.isithacked.com/check/&lt;br&gt;&amp;nbsp; &lt;br&gt;&amp;nbsp; https://safeweb.norton.com/report/show?url=&lt;br&gt;&amp;nbsp; &lt;br&gt;&amp;nbsp; http://www.malwaredomainlist.com/mdl.php?search=_&amp;amp;colsearch=All&amp;amp;quantity=50&amp;amp;inactive=on &lt;br&gt;&amp;nbsp; &lt;br&gt;&amp;nbsp; https://mxtoolbox.com/SuperTool.aspx?action=blacklist%3a&lt;br&gt;&amp;nbsp; https://otx.alienvault.com/indicator/domain/&lt;br&gt;&amp;nbsp; https://urlfiltering.paloaltonetworks.com/&lt;br&gt;&amp;nbsp; https://sitecheck.sucuri.net/results/&lt;br&gt;&amp;nbsp; https://www.unmaskparasites.com/security-report/?page=&lt;br&gt;&amp;nbsp; http://www.unmaskparasites.com/security-tools/find-hidden-links/site/?siteUrl=&lt;br&gt;&amp;nbsp; https://www.urlvoid.com/scan/&lt;br&gt;&amp;nbsp; https://www.threatminer.org/domain.php?q=&lt;br&gt;&amp;nbsp; https://www.robtex.com/dns-lookup/&lt;br&gt;&amp;nbsp; https://ipinfo.asytech.cn/check-ip/&lt;br&gt;&amp;nbsp; https://sitereview.bluecoat.com/#/lookup-result/&lt;/font&gt;&lt;/div&gt;&lt;div&gt;&lt;font style=&quot;font-size: 10px&quot;&gt;Blocklist.DE &lt;br&gt;&amp;nbsp; https://www.blocklist.de/en/search.html&lt;br&gt;&amp;nbsp; https://www.blocklist.de/en/view.html?ip=&lt;br&gt;&amp;nbsp; POST:&lt;br&gt;&amp;nbsp; Webroot brightcloud&lt;br&gt;&amp;nbsp; https://www.brightcloud.com/tools/url-ip-lookup.php &lt;br&gt;&amp;nbsp; userIP=172.31.37.165&amp;amp;debug=true&amp;amp;urlIP=35.225.23.132&lt;br&gt;&amp;nbsp; comodo&lt;br&gt;&amp;nbsp; https://app.webinspector.com/&lt;br&gt;&amp;nbsp; &lt;br&gt;&amp;nbsp; The most comprehensive database of counterfeit-related webs&lt;br&gt;&amp;nbsp; http://desenmascara.me/&lt;br&gt;&amp;nbsp; &lt;br&gt;&amp;nbsp; Joe Sandbox URL Analyzer:&amp;nbsp; https://www.joesandbox.com/&amp;nbsp; &lt;br&gt;&amp;nbsp; http://isitphishing.org/&lt;br&gt;&amp;nbsp; https://virusdesk.kaspersky.com/&lt;br&gt;https://urlfiltering.paloaltonetworks.com/query/&lt;br&gt;http://www.phishtank.com/&lt;br&gt;https://www.malwareurl.com/listing-urls.php&lt;br&gt;https://trustedsource.org/sources/index.pl&lt;br&gt;https://urlfiltering.paloaltonetworks.com/&lt;br&gt;https://pulsedive.com&lt;br&gt;https://global.sitesafety.trendmicro.com/&lt;br&gt;http://www.unmaskparasites.com/&lt;br&gt;http://urlquery.net/&lt;br&gt;https://urlscan.io/&lt;br&gt;https://www.ipvoid.com/&lt;br&gt;https://zulu.zscaler.com/&lt;br&gt;https://tools.zvelo.com/&lt;br&gt;&lt;br&gt;https://intelx.io/?s=&lt;br&gt;&amp;nbsp;&amp;nbsp;&amp;nbsp; Email address&amp;nbsp;&amp;nbsp;&amp;nbsp; Domain&amp;nbsp;&amp;nbsp;&amp;nbsp; URL&amp;nbsp;&amp;nbsp;&amp;nbsp; IP&amp;nbsp;&amp;nbsp;&amp;nbsp; CIDR&amp;nbsp;&amp;nbsp;&amp;nbsp; Phone Number&lt;br&gt;&amp;nbsp;&amp;nbsp;&amp;nbsp; Bitcoin address&amp;nbsp;&amp;nbsp;&amp;nbsp; MAC address&amp;nbsp;&amp;nbsp;&amp;nbsp; IPFS Hash&lt;br&gt;&amp;nbsp;&amp;nbsp;&amp;nbsp; Credit Card Number&amp;nbsp;&amp;nbsp;&amp;nbsp; Social Security Number&lt;br&gt;&amp;nbsp;&amp;nbsp;&amp;nbsp; IBAN (International Bank Account Number)&lt;br&gt;&lt;br&gt;https://threatcenter.crdf.fr/?More&amp;amp;ID=140684&lt;br&gt;&lt;br&gt;@crdflabs&lt;br&gt;&lt;br&gt;&lt;/font&gt;&lt;/div&gt;" style="text;html=1;strokeColor=none;fillColor=none;align=center;verticalAlign=middle;whiteSpace=wrap;rounded=0;labelBorderColor=#000000;labelBackgroundColor=#1A1A1A;fontColor=#E6FFCC;fontFamily=Lucida Console;fontSize=11;" parent="Tu1OcHofki_U5It5Fhx5-1" vertex="1">
          <mxGeometry x="20" y="50" width="490" height="1000" as="geometry"/>
        </mxCell>
      </root>
    </mxGraphModel>
  </diagram>
  <diagram id="cRf6RbwT0mVIiAaGgkof" name="Page-3">
    <mxGraphModel dx="698" dy="473" grid="1" gridSize="10" guides="1" tooltips="1" connect="1" arrows="1" fold="1" page="1" pageScale="1" pageWidth="850" pageHeight="1100" math="0" shadow="0">
      <root>
        <mxCell id="g43jFDyRE_j7FRilIXaE-0"/>
        <mxCell id="g43jFDyRE_j7FRilIXaE-1" parent="g43jFDyRE_j7FRilIXaE-0"/>
        <mxCell id="g43jFDyRE_j7FRilIXaE-2" value="&lt;div&gt;&lt;font style=&quot;font-size: 10px&quot;&gt;For the download, please go to https://www.owasp.org/index.php&lt;/font&gt;&lt;/div&gt;&lt;div&gt;&lt;font style=&quot;font-size: 10px&quot;&gt;OWASP_Zed_Attack_Proxy_Project .&lt;br&gt;&amp;nbsp;o http://w3af.org/download &lt;br&gt;&amp;nbsp;http://www.arachni-scanner.com/download/.&lt;br&gt;&amp;nbsp;&lt;br&gt;&amp;nbsp;https://cisofy.com/lynis/#&lt;/font&gt;&lt;/div&gt;&lt;div&gt;&lt;font style=&quot;font-size: 10px&quot;&gt;download.com/wp-content/uploads/2019/05/Freelance-Marketing-Handbook-Antonio-997-EVERGREEN.pdf&lt;br&gt;&amp;nbsp;https://pastebin.com/u/cybersecuritynews&lt;br&gt;http://link.fifthdomain.com/join/5ft/sign-up&lt;/font&gt;&lt;/div&gt;&lt;div&gt;&lt;font style=&quot;font-size: 10px&quot;&gt;&lt;br&gt;&lt;/font&gt;&lt;/div&gt;&lt;font style=&quot;font-size: 10px&quot;&gt;https://www.eventbrite.com/e/practical-cybersecurity-for-startups-and-small-businesses-tickets-61303333922?utm-medium=discovery&amp;amp;utm-campaign=social&amp;amp;utm-content=attendeeshare&amp;amp;aff=estw&amp;amp;utm-source=tw&amp;amp;utm-term=listing&lt;br&gt;&lt;br&gt;escalate privilege&lt;br&gt;https://www.fifthdomain.com/show-reporters/black-hat/2018/08/07/manufacturing-bugs-allow-millions-of-phones-to-be-taken-over-dhs-project-to-announce/&lt;br&gt;&lt;br&gt;Angelos Stavrou&amp;nbsp; - Kryptowire&lt;br&gt;&amp;nbsp;The research was conducted by Kryptowire, a Virginia-based mobile security firm and &lt;br&gt;&amp;nbsp;funded through the Critical Infrastructure Resilience Institute, &lt;br&gt;&amp;nbsp;a Department of Homeland Security research center.&lt;br&gt;&lt;/font&gt;" style="text;html=1;strokeColor=none;fillColor=none;align=center;verticalAlign=middle;whiteSpace=wrap;rounded=0;labelBackgroundColor=#1A1A1A;fontFamily=Lucida Console;fontSize=9;fontColor=#E6FFCC;" parent="g43jFDyRE_j7FRilIXaE-1" vertex="1">
          <mxGeometry x="20" y="20" width="500" height="410" as="geometry"/>
        </mxCell>
      </root>
    </mxGraphModel>
  </diagram>
</mxfile>
